<svg id="Book" xmlns="http://www.w3.org/2000/svg" width="26" height="26" viewBox="0 0 26 26">
  <g id="book-2" data-name="book">
    <path id="Vector" d="M21.667,15.251V2.175A2.134,2.134,0,0,0,19.316.019h-.065a20.422,20.422,0,0,0-7.659,2.567l-.184.119a1.2,1.2,0,0,1-1.148,0l-.271-.162A20.32,20.32,0,0,0,2.34.008,2.131,2.131,0,0,0,0,2.164V15.251A2.226,2.226,0,0,0,1.885,17.4l.314.043a27.834,27.834,0,0,1,8.06,2.643l.043.022a1.17,1.17,0,0,0,1.04,0,27.582,27.582,0,0,1,8.082-2.665l.358-.043A2.226,2.226,0,0,0,21.667,15.251Z" transform="translate(2.167 2.884)" fill="none" stroke="#f3f8ff" stroke-linecap="round" stroke-linejoin="round" stroke-width="2"/>
    <path id="Vector-2" data-name="Vector" d="M0,0V16.25" transform="translate(13 5.948)" fill="none" stroke="#f3f8ff" stroke-linecap="round" stroke-linejoin="round" stroke-width="2"/>
    <path id="Vector-3" data-name="Vector" d="M2.438,0H0" transform="translate(5.958 9.198)" fill="none" stroke="#f3f8ff" stroke-linecap="round" stroke-linejoin="round" stroke-width="2"/>
    <path id="Vector-4" data-name="Vector" d="M3.25,0H0" transform="translate(5.958 12.448)" fill="none" stroke="#f3f8ff" stroke-linecap="round" stroke-linejoin="round" stroke-width="2"/>
    <path id="Vector-5" data-name="Vector" d="M0,0H26V26H0Z" transform="translate(26 26) rotate(180)" fill="none" opacity="0"/>
  </g>
</svg>
